<?xml version="1.0" encoding="utf-8"?>
<!-- Generator: Adobe Illustrator 18.0.0, SVG Export Plug-In . SVG Version: 6.00 Build 0)  -->
<!DOCTYPE svg PUBLIC "-//W3C//DTD SVG 1.1//EN" "http://www.w3.org/Graphics/SVG/1.1/DTD/svg11.dtd" [
	<!ENTITY ns_flows "http://ns.adobe.com/Flows/1.0/">
	<!ENTITY ns_extend "http://ns.adobe.com/Extensibility/1.0/">
	<!ENTITY ns_ai "http://ns.adobe.com/AdobeIllustrator/10.0/">
	<!ENTITY ns_graphs "http://ns.adobe.com/Graphs/1.0/">
]>
<svg version="1.1" id="Ebene_1" xmlns:x="&ns_extend;" xmlns:i="&ns_ai;" xmlns:graph="&ns_graphs;"
	 xmlns="http://www.w3.org/2000/svg" xmlns:xlink="http://www.w3.org/1999/xlink" xmlns:a="http://ns.adobe.com/AdobeSVGViewerExtensions/3.0/"
	 x="0px" y="0px" viewBox="0 0 50 50" enable-background="new 0 0 50 50" xml:space="preserve">
<g style="fill:#006fb5;">
	<path d="M28.853,19.90619c-0.5117-0.2031-1.0937,0.0411-1.3007,0.5528c-0.2071,0.5136,0.041,1.0957,0.5527,1.3027
		c3.1699,1.2774,5.2187,4.3067,5.2187,7.7168c0,4.5879-3.7324,8.31839-8.3203,8.31839c-4.5859,0-8.3183-3.73049-8.3183-8.31839
		c0-3.4101,2.0468-6.4394,5.2148-7.7168c0.5117-0.207,0.7598-0.7891,0.5527-1.3027c-0.207-0.5117-0.789-0.7578-1.3007-0.5528
		c-3.9297,1.584-6.4668,5.3418-6.4668,9.5723c0,5.6895,4.6289,10.31839,10.3183,10.31839c5.6914,0,10.3203-4.62889,10.3203-10.31839
		C35.3237,25.24799,32.7827,21.49019,28.853,19.90619z"/>
	<path d="M27.3218,5.94139c-1.2402-1.1797-3.3965-1.1797-4.6367,0L6.4194,21.40229c-0.6406,0.6114-1.124,1.7403-1.124,2.627v16.9082
		c0,2.209,1.792,4.0059,3.9932,4.0059h31.4297c2.2031,0,3.9941-1.7969,3.9941-4.0059v-16.9082c0-0.8887-0.4844-2.0176-1.1269-2.627
		L27.3218,5.94139z M42.7124,40.93749c0,1.10739-0.8945,2.0059-1.9941,2.0059H9.2886c-1.0996,0-1.9932-0.89851-1.9932-2.0059
		v-16.9082c0-0.3457,0.2549-0.94141,0.5029-1.1777l16.2637-15.461c0.2461-0.2344,0.5821-0.3633,0.9414-0.3633
		c0.3594,0,0.6934,0.1289,0.9414,0.3633l16.2637,15.461c0.2481,0.23629,0.5039,0.832,0.5039,1.1777V40.93749z"/>
	<path d="M25.0034,27.40619c0.5528,0,1-0.4472,1-1v-7.207c0-0.5527-0.4472-1-1-1c-0.5527,0-1,0.4473-1,1v7.207
		C24.0034,26.95899,24.4507,27.40619,25.0034,27.40619z"/>
</g>
</svg>
